<?xml version="1.0" encoding="utf-8"?>
<!-- Generator: Adobe Illustrator 16.0.0, SVG Export Plug-In . SVG Version: 6.00 Build 0)  -->
<!DOCTYPE svg PUBLIC "-//W3C//DTD SVG 1.1//EN" "http://www.w3.org/Graphics/SVG/1.1/DTD/svg11.dtd">
<svg version="1.1" id="Layer_1" xmlns="http://www.w3.org/2000/svg" xmlns:xlink="http://www.w3.org/1999/xlink" x="0px" y="0px"
	 width="247.71px" height="23.332px" viewBox="0 128.5 247.71 23.332" enable-background="new 0 128.5 247.71 23.332"
	 xml:space="preserve">
<g opacity="0.8">
	<path fill="#231F20" d="M14.766,133.329v0.869H12.16v-0.869c0-0.48-0.169-0.89-0.508-1.229s-0.749-0.508-1.229-0.508h-6.08
		c-0.481,0-0.89,0.169-1.229,0.508s-0.508,0.749-0.508,1.229v6.08c0,0.481,0.169,0.89,0.508,1.229
		c0.339,0.339,0.748,0.508,1.229,0.508h6.08c0.48,0,0.89-0.169,1.229-0.508c0.339-0.338,0.508-0.748,0.508-1.229v-0.869h2.606v0.869
		c0,1.198-0.424,2.222-1.272,3.07c-0.848,0.849-1.872,1.273-3.07,1.273h-6.08c-1.198,0-2.222-0.424-3.07-1.273
		C0.424,141.631,0,140.607,0,139.409v-6.08c0-1.198,0.424-2.222,1.272-3.07s1.872-1.272,3.07-1.272h6.08
		c1.198,0,2.222,0.424,3.07,1.272S14.766,132.131,14.766,133.329z"/>
	<path fill="#231F20" d="M24.319,131.592v12.16h-2.605v-12.16h-6.08v-2.606h14.765v2.606H24.319z"/>
	<path fill="#231F20" d="M35.611,128.986h8.686v2.606h-8.686c-0.481,0-0.891,0.169-1.229,0.508
		c-0.339,0.339-0.508,0.749-0.508,1.229v6.08c0,0.481,0.169,0.89,0.508,1.229c0.338,0.339,0.748,0.508,1.229,0.508h6.08
		c0.48,0,0.89-0.169,1.229-0.508c0.339-0.338,0.508-0.748,0.508-1.229v-1.737h-5.211v-2.606h7.817v4.343
		c0,1.198-0.424,2.222-1.273,3.07c-0.848,0.849-1.872,1.273-3.07,1.273h-6.08c-1.199,0-2.222-0.424-3.07-1.273
		c-0.849-0.848-1.272-1.872-1.272-3.07v-6.08c0-1.198,0.424-2.222,1.272-3.07C33.389,129.411,34.412,128.986,35.611,128.986z"/>
	<path fill="#231F20" d="M61.667,128.986v2.606h-12.16v3.474h12.16v2.606h-12.16v3.474h12.16v2.606H46.902v-14.766H61.667z"/>
	<path fill="#231F20" d="M66.879,143.752c-1.199,0-2.222-0.424-3.07-1.273c-0.849-0.848-1.272-1.872-1.272-3.07v-6.08
		c0-1.198,0.424-2.222,1.272-3.07c0.848-0.848,1.872-1.272,3.07-1.272h6.08c1.199,0,2.222,0.424,3.071,1.272
		c0.848,0.848,1.272,1.872,1.272,3.07v6.08c0,1.198-0.424,2.222-1.272,3.07c-0.849,0.849-1.872,1.273-3.071,1.273H66.879z
		 M65.142,139.409c0,0.481,0.169,0.89,0.508,1.229c0.338,0.339,0.749,0.508,1.229,0.508h6.08c0.481,0,0.891-0.169,1.229-0.508
		c0.338-0.338,0.508-0.748,0.508-1.229v-6.08c0-0.48-0.169-0.89-0.508-1.229c-0.339-0.339-0.749-0.508-1.229-0.508h-6.08
		c-0.48,0-0.891,0.169-1.229,0.508c-0.339,0.339-0.508,0.749-0.508,1.229V139.409z"/>
	<path fill="#231F20" d="M92.936,139.409c0,1.198-0.424,2.222-1.272,3.07c-0.849,0.849-1.872,1.273-3.07,1.273H78.17v-14.766h10.423
		c1.198,0,2.221,0.424,3.07,1.272c0.848,0.848,1.272,1.872,1.272,3.07V139.409z M88.593,141.146c0.48,0,0.89-0.169,1.229-0.508
		c0.338-0.338,0.508-0.748,0.508-1.229v-6.08c0-0.48-0.169-0.89-0.508-1.229c-0.339-0.339-0.749-0.508-1.229-0.508h-7.817v9.554
		H88.593z"/>
	<path fill="#231F20" d="M95.88,141.146l-1.503,2.606h-3.014l7.304-12.646l1.503-2.605l1.502,2.605l7.304,12.646h-3.014
		l-1.502-2.606H95.88z M102.958,138.541l-2.787-4.829l-2.788,4.829H102.958z"/>
	<path fill="#231F20" d="M113.634,131.592v12.16h-2.605v-12.16h-6.08v-2.606h14.766v2.606H113.634z"/>
	<path fill="#231F20" d="M124.925,143.752c-1.199,0-2.223-0.424-3.07-1.273c-0.85-0.848-1.272-1.872-1.272-3.07v-6.08
		c0-1.198,0.423-2.222,1.272-3.07c0.848-0.848,1.871-1.272,3.07-1.272h6.08c1.198,0,2.221,0.424,3.07,1.272
		c0.848,0.848,1.271,1.872,1.271,3.07v6.08c0,1.198-0.424,2.222-1.271,3.07c-0.85,0.849-1.872,1.273-3.07,1.273H124.925z
		 M123.188,139.409c0,0.481,0.168,0.89,0.508,1.229c0.338,0.339,0.748,0.508,1.229,0.508h6.08c0.48,0,0.891-0.169,1.229-0.508
		c0.338-0.338,0.508-0.748,0.508-1.229v-6.08c0-0.48-0.17-0.89-0.508-1.229s-0.748-0.508-1.229-0.508h-6.08
		c-0.48,0-0.891,0.169-1.229,0.508c-0.34,0.339-0.508,0.749-0.508,1.229V139.409z"/>
	<path fill="#231F20" d="M140.56,143.752c-1.199,0-2.223-0.424-3.071-1.273c-0.849-0.848-1.272-1.872-1.272-3.07h2.606
		c0,0.481,0.169,0.89,0.507,1.229c0.34,0.339,0.749,0.508,1.23,0.508h6.079c0.48,0,0.89-0.169,1.229-0.508
		c0.339-0.338,0.509-0.748,0.509-1.229c0-0.48-0.17-0.89-0.509-1.229s-0.748-0.508-1.229-0.508h-6.079
		c-1.199,0-2.223-0.424-3.071-1.272c-0.849-0.849-1.272-1.872-1.272-3.071c0-1.198,0.424-2.222,1.272-3.07s1.872-1.272,3.071-1.272
		h6.079c1.198,0,2.222,0.424,3.069,1.272c0.85,0.848,1.273,1.872,1.273,3.07h-2.605c0-0.48-0.17-0.89-0.509-1.229
		s-0.748-0.508-1.229-0.508h-6.079c-0.481,0-0.891,0.169-1.23,0.508c-0.338,0.339-0.507,0.749-0.507,1.229
		c0,0.481,0.169,0.89,0.507,1.229c0.34,0.338,0.749,0.508,1.23,0.508h6.079c1.198,0,2.222,0.424,3.069,1.272
		c0.85,0.848,1.273,1.872,1.273,3.07c0,1.198-0.424,2.222-1.273,3.07c-0.848,0.849-1.871,1.273-3.069,1.273H140.56z"/>
</g>
</svg>
